PathFileType	4	(X/Y/Z)	C:\Users\chris\Documents\GitHub\baseballds\vids\pitch5_Sports2D\pitch5_Sports2D_m_person06.trc
DataRate	CameraRate	NumFrames	NumMarkers	Units	OrigDataRate	OrigDataStartFrame	OrigNumFrames
30	30	8	22	m	30	130	149
Frame#	Time	Hip			RHip			RKnee			RAnkle			RBigToe			RSmallToe			RHeel			LHip			LKnee			LAnkle			LBigToe			LSmallToe			LHeel			Neck			Head			Nose			RShoulder			RElbow			RWrist			LShoulder			LElbow			LWrist		
		X1	Y1	Z1	X2	Y2	Z2	X3	Y3	Z3	X4	Y4	Z4	X5	Y5	Z5	X6	Y6	Z6	X7	Y7	Z7	X8	Y8	Z8	X9	Y9	Z9	X10	Y10	Z10	X11	Y11	Z11	X12	Y12	Z12	X13	Y13	Z13	X14	Y14	Z14	X15	Y15	Z15	X16	Y16	Z16	X17	Y17	Z17	X18	Y18	Z18	X19	Y19	Z19	X20	Y20	Z20	X21	Y21	Z21	X22	Y22	Z22
130	4.333333333333333	2.708538615926751	1.0451870296893793	0.0	2.730345937019554	1.0415198963590981	0.0	2.7692854459643486	0.8412453543127638	0.0	2.7326501047573286	0.6358164384798163	0.0	2.772256506626163	0.5989335958627235	0.0	2.785135787880032	0.5810051051837958	0.0	2.718122257115963	0.606734743042119	0.0	2.6791604595042045	1.0396702079732318	0.0	2.745236286924293	0.8594976532309815	0.0	2.6647807518279087	0.6983283471053071	0.0	2.7325816211319505	0.6341515259683841	0.0	2.7289839195717276	0.6520715085049741	0.0	2.6397865150818274	0.6717241228927088	0.0	2.693010130019259	1.3484105926490724	0.0	2.7085396430124726	1.4852028858847537	0.0	2.7401135401697343	1.4028082247003175	0.0	2.7095505853618134	1.3136761387000049	0.0	2.780521090701187	1.1924986958070531	0.0	2.8187742716468844	1.2064515786773922	0.0	2.636479647133752	1.3121449873090072	0.0	2.6737170222586277	1.1705096237055497	0.0	2.7336581383431873	1.1044887948893254	0.0
131	4.366666666666666	2.715545127097553	1.0499256351812443	0.0	2.7259284187979222	1.0427897154346828	0.0	2.772671671405603	0.8441998335351764	0.0	2.733200125788464	0.6351192621697122	0.0	2.8065980769513494	0.5859176327575949	0.0	2.7938146479243584	0.567641295307252	0.0	2.7134916545374788	0.6069258704993801	0.0	2.6925155538226653	1.0445448530181154	0.0	2.757559630152207	0.8576632728931526	0.0	2.694543040726912	0.6777303556152228	0.0	2.7806507844116117	0.6311911474800239	0.0	2.770679167198498	0.6481007419886212	0.0	2.6715578799359596	0.6515390798243743	0.0	2.701660949973648	1.351164467868212	0.0	2.718804831515737	1.4866003009113464	0.0	2.7477050508658953	1.4029799143819806	0.0	2.704324146500872	1.3166724395804204	0.0	2.7956659781084294	1.1969789519052374	0.0	2.830878877760624	1.266732292976872	0.0	2.643952667975514	1.3203355785404889	0.0	2.7369018888985948	1.181364332379614	0.0	2.7782370236208367	1.1255097568689916	0.0
132	4.4	2.719376568404046	1.0517270344657839	0.0	2.7245112358125634	1.0430268739913902	0.0	2.7766767276085025	0.8467031478211383	0.0	2.7319144167531	0.6341796312973736	0.0	2.8113482204831763	0.582717291720381	0.0	2.79368164901783	0.5646487231251743	0.0	2.706299460844173	0.6097843512209095	0.0	2.7004920537994352	1.045869571857408	0.0	2.76360172358055	0.8572692465756706	0.0	2.7097900631584495	0.6663016746416238	0.0	2.799948752358385	0.6310124651453806	0.0	2.7760068453558926	0.6410457243943884	0.0	2.6815525197597987	0.6456924051872194	0.0	2.711436352617344	1.3546941675320772	0.0	2.731057706151247	1.4877632736596098	0.0	2.759630543432813	1.405331263594269	0.0	2.719656652057584	1.3200560777650199	0.0	2.808683814404185	1.1949725175920856	0.0	2.849936841626627	1.2570488270868512	0.0	2.651331533121131	1.3253339138600975	0.0	2.7435763389700916	1.1807844188806158	0.0	2.7695237690649033	1.1351143107098631	0.0
133	4.433333333333334	2.721389975082271	1.0506170011134115	0.0	2.7274360784468703	1.0444245792266305	0.0	2.7783566676852733	0.8471673771667192	0.0	2.7287034141451585	0.6345642611001052	0.0	2.8033389886949376	0.59016247114544	0.0	2.7928963267425817	0.5732312562132512	0.0	2.7004302372403735	0.6138255747864915	0.0	2.7011605203130826	1.0454300118164346	0.0	2.767255125735179	0.8581435178449304	0.0	2.720161649186997	0.6631771854860097	0.0	2.8073467325386545	0.6333753666135279	0.0	2.7719825398044	0.6386959049950229	0.0	2.6842029882992797	0.6478814654636398	0.0	2.719684515323065	1.356226685024619	0.0	2.7418582144071757	1.487958907917481	0.0	2.7720090415899263	1.407900751079212	0.0	2.7468061340927457	1.3228962392249455	0.0	2.8180809761352257	1.1935668522184226	0.0	2.8685982156487673	1.2304840423975478	0.0	2.657340732936047	1.324875318222826	0.0	2.6915161398025	1.1702800131686242	0.0	2.698168419798419	1.0995081203021964	0.0
134	4.466666666666667	2.724056750292748	1.0490245335303872	0.0	2.7328920185869428	1.0495785660071164	0.0	2.777773575272444	0.8458359930619399	0.0	2.725616567147007	0.6367163907188773	0.0	2.80084597167801	0.59882515378525	0.0	2.7950755504125318	0.584044750728718	0.0	2.69659660726057	0.615205592664361	0.0	2.6983217485033633	1.0482581865958522	0.0	2.7704897610608494	0.8578603734948698	0.0	2.736892426162145	0.6628795978291202	0.0	2.8198207652671745	0.6322406545546944	0.0	2.7881889575984466	0.6402851175955185	0.0	2.6985219967318517	0.6465819193264333	0.0	2.7239870114463725	1.3558769067537686	0.0	2.7501771869505482	1.4880994651594803	0.0	2.782117734220654	1.4106088012547953	0.0	2.764614335951599	1.3248102123925738	0.0	2.821820817678506	1.1974974930202753	0.0	2.8807008291880014	1.235371625512527	0.0	2.6615027585600686	1.321405803246574	0.0	2.639960527910951	1.1623490654105093	0.0	2.627773861402793	1.0554139763574417	0.0
135	4.5	2.7282230669118994	1.0488266715547954	0.0	2.739048446592632	1.0571412053300209	0.0	2.7772806033834048	0.8440500078176533	0.0	2.7227029338786846	0.6397145967958718	0.0	2.80447615365292	0.601908728927337	0.0	2.7973300960030643	0.5888917918466274	0.0	2.69360774998874	0.6141521777370162	0.0	2.697055203940124	1.0553657379347798	0.0	2.773277788882332	0.8561132482444866	0.0	2.7563455746461645	0.6627458379821416	0.0	2.83247562581277	0.6251895145162297	0.0	2.818729545972382	0.6398121814879025	0.0	2.722018862717782	0.6408628192143905	0.0	2.7256485507798835	1.3556902406535898	0.0	2.7565143804283996	1.4886821435245552	0.0	2.7891195601058802	1.413168674376637	0.0	2.767516693686413	1.325094898816321	0.0	2.8214094643222656	1.2021165639621116	0.0	2.8872745482780084	1.246489660518568	0.0	2.6643661269461973	1.3193423590296935	0.0	2.6231450898776623	1.1640593370737482	0.0	2.5982198743900793	1.041640290194686	0.0
136	4.533333333333333	2.7324856247388936	1.0494299513586778	0.0	2.743855997533173	1.062460326647336	0.0	2.778030439553993	0.842581804387611	0.0	2.7201168477761852	0.6426803440522315	0.0	2.8076563968449904	0.6014226001334289	0.0	2.798712845781606	0.5891296555375882	0.0	2.6897546503155927	0.6137403932744167	0.0	2.6994564780412733	1.0619678252356595	0.0	2.7781195519925532	0.8548194136763628	0.0	2.770857005555455	0.6621651085977848	0.0	2.8376782526328266	0.6175420787198803	0.0	2.8400151385662027	0.635641621966369	0.0	2.741073763655247	0.6355594945928312	0.0	2.7279613752340657	1.3556389453966362	0.0	2.7606478314602456	1.4887453242457607	0.0	2.793665551994921	1.4142833738130935	0.0	2.7647164374262694	1.322477225589021	0.0	2.822244839070538	1.1994525420392292	0.0	2.89381926130361	1.2273960271284095	0.0	2.666703785905255	1.3198396696696324	0.0	2.627698364651816	1.17024759614478	0.0	2.594715907921418	1.0503111373812655	0.0
137	4.566666666666666	2.735496085054387	1.0492634924384725	0.0	2.74616327199489	1.0627220698489277	0.0	2.7795072402493655	0.8419300669762212	0.0	2.7193419978436495	0.6453685111275294	0.0	2.807874128456639	0.6025142381101329	0.0	2.800824063200976	0.5902137724651403	0.0	2.685701908001181	0.614833711888978	0.0	2.7041382739239315	1.0636074094500712	0.0	2.784604063080329	0.8551039669582172	0.0	2.777082007240596	0.6613234610180302	0.0	2.836627935401087	0.6144963139839666	0.0	2.8383192413738842	0.6307789542147746	0.0	2.7477849048444463	0.6331940600406455	0.0	2.731973351557654	1.3546888826276318	0.0	2.7627565394484037	1.488471744188485	0.0	2.7969197204441163	1.414456315366059	0.0	2.7641300639431616	1.317274794196232	0.0	2.826278431684762	1.189681739424849	0.0	2.900982176703866	1.1982379159910073	0.0	2.668936269429507	1.3207333598098168	0.0	2.634443813904467	1.1739221884967437	0.0	2.5967631454373175	1.060568270155473	0.0
